<?xml version="1.0" encoding="UTF-8"?>
<svg version="1.1" xmlns="http://www.w3.org/2000/svg" width="512" height="512">
<path d="M0 0 C0.80163574 0.24556641 1.60327148 0.49113281 2.42919922 0.74414062 C7.08205269 2.22798496 11.53162844 4.01991689 16 6 C16.66966797 6.28568848 17.33933594 6.57137695 18.02929688 6.86572266 C33.31112552 13.40750453 47.42165033 22.10021692 60 33 C61.22396484 34.05960938 61.22396484 34.05960938 62.47265625 35.140625 C65.0178422 37.39077393 67.51544497 39.68316219 70 42 C70.79019531 42.72445312 71.58039063 43.44890625 72.39453125 44.1953125 C89.70132984 60.69129177 102.39774091 81.81034516 111 104 C111.67289062 105.72476563 111.67289062 105.72476563 112.359375 107.484375 C113.72758825 111.28496736 114.89392425 115.11775319 116 119 C116.22993652 119.75458496 116.45987305 120.50916992 116.69677734 121.28662109 C127.15586858 156.72856531 123.49223092 199.65680388 108 233 C107.67209473 233.70576172 107.34418945 234.41152344 107.00634766 235.13867188 C103.49160231 242.58959486 99.86543432 249.76287019 94.93359375 256.3984375 C92.2206141 263.9584561 95.83353013 274.38965202 97.1875 282.0625 C97.4030957 283.30531738 97.61869141 284.54813477 97.84082031 285.82861328 C99.0571808 292.79716499 100.32113272 299.75508069 101.62890625 306.70703125 C101.90156511 308.16721457 102.17410806 309.62741954 102.4465332 311.08764648 C102.96508998 313.86651066 103.49506475 316.64284564 104.03198242 319.41821289 C105.26452891 326.0001342 106.29461474 332.55519167 106.859375 339.2265625 C106.96217773 340.43135254 107.06498047 341.63614258 107.17089844 342.87744141 C106.98064651 346.35361585 106.47098257 347.59867314 104 350 C99.08151597 351.61146913 95.49428082 350.51345519 90.875 348.625 C89.84499878 348.221604 89.84499878 348.221604 88.79418945 347.81005859 C81.45223777 344.88310541 74.27444408 341.57779369 67.0859375 338.296875 C59.89838376 335.02855671 52.61516398 331.99747023 45.32128906 328.97607422 C42.95003568 327.9789906 40.59565712 326.94845167 38.2421875 325.91015625 C37.47608154 325.57838379 36.70997559 325.24661133 35.9206543 324.90478516 C34.47689745 324.27942552 33.03782527 323.64308639 31.60473633 322.99365234 C26.06361477 320.62487615 22.73071348 320.97120178 17.2109375 323.05078125 C15.80714844 323.67533203 15.80714844 323.67533203 14.375 324.3125 C8.3078194 326.88846841 2.34334234 329.19147261 -4 331 C-4.71349609 331.21720703 -5.42699219 331.43441406 -6.16210938 331.65820312 C-41.71990942 342.11295351 -84.53278485 338.50026214 -118 323 C-118.6791748 322.68804687 -119.35834961 322.37609375 -120.05810547 322.0546875 C-134.48420417 315.3350278 -148.02970824 307.55662233 -160 297 C-161.26070312 295.90365234 -161.26070312 295.90365234 -162.546875 294.78515625 C-165.06651469 292.55895286 -167.53985699 290.29169373 -170 288 C-170.78890625 287.27683594 -171.5778125 286.55367188 -172.390625 285.80859375 C-189.21834657 269.76797528 -201.71516899 249.32796545 -210.27539062 227.81738281 C-210.94913389 226.1275766 -211.6530709 224.44989494 -212.359375 222.7734375 C-213.75689501 219.22787748 -214.93347239 215.65533491 -216 212 C-216.22993652 211.22865723 -216.45987305 210.45731445 -216.69677734 209.66259766 C-226.87530344 173.6828517 -223.67524105 130.84501889 -208 97 C-207.68804687 96.3208252 -207.37609375 95.64165039 -207.0546875 94.94189453 C-200.3350278 80.51579583 -192.55662233 66.97029176 -182 55 C-181.26910156 54.15953125 -180.53820312 53.3190625 -179.78515625 52.453125 C-177.55895286 49.93348531 -175.29169373 47.46014301 -173 45 C-172.27683594 44.21109375 -171.55367187 43.4221875 -170.80859375 42.609375 C-151.48209887 22.33454111 -125.04265391 7.07478534 -98.09326172 -0.41748047 C-96.6341865 -0.82351656 -95.1803172 -1.24853305 -93.73095703 -1.68798828 C-64.37913771 -10.35465643 -29.08635469 -8.95285823 0 0 Z " fill="#FDE100" transform="translate(306,91)"/>
<path d="M0 0 C0.99 0.495 0.99 0.495 2 1 C1.43152344 1.62003906 0.86304688 2.24007812 0.27734375 2.87890625 C-15.71618495 21.22206855 -17.25572274 41.38677775 -16 65 C-15.48211452 70.78191881 -14.39271384 76.37087803 -13 82 C-12.70609375 83.23878906 -12.4121875 84.47757812 -12.109375 85.75390625 C-7.82838985 101.32838582 -0.21655652 117.54007004 9.83203125 130.19921875 C12.20240769 133.26148886 14.33046619 136.43442623 16.47631836 139.65600586 C21.46358489 147.12471997 26.6615679 154.31786651 32.375 161.25 C32.9333252 161.92820801 33.49165039 162.60641602 34.06689453 163.30517578 C37.35680508 167.22824999 40.81778527 170.89321889 44.46875 174.48144531 C46.17095869 176.16954131 47.75909333 177.92443313 49.3125 179.75 C58.6056104 190.54606357 58.6056104 190.54606357 68.97265625 200.28125 C71.19342874 202.16398583 73.30650701 204.1413438 75.4375 206.125 C86.44747379 216.05091484 98.65267568 224.82228342 111 233 C111.59570801 233.39783691 112.19141602 233.79567383 112.80517578 234.20556641 C139.62871043 252.00228381 168.15958884 261.22132646 200.70263672 256.61767578 C205.36883596 255.6095028 209.62569649 253.91677538 214 252 C215.40732393 251.44790622 216.81625029 250.89988371 218.2265625 250.35546875 C225.03278331 247.64734345 231.16445038 244.83554962 236.421875 239.578125 C238.1556558 237.8443442 240.01414813 236.433267 242 235 C244.02900989 245.42560771 246.0274069 255.84892181 247.7097168 266.33666992 C248.55923652 271.55032279 249.50534393 276.74287343 250.484375 281.93359375 C250.7561357 283.38572094 251.02778141 284.83786965 251.29931641 286.29003906 C251.70504905 288.45917816 252.11342978 290.62759586 252.53192139 292.79431152 C253.9723213 300.25549939 255.22828647 307.69227192 255.8671875 315.26953125 C256.01969971 317.06741089 256.01969971 317.06741089 256.17529297 318.90161133 C255.97957652 322.36099498 255.45750404 323.60714832 253 326 C248.08151597 327.61146913 244.49428082 326.51345519 239.875 324.625 C238.84499878 324.221604 238.84499878 324.221604 237.79418945 323.81005859 C230.45223777 320.88310541 223.27444408 317.57779369 216.0859375 314.296875 C208.89838376 311.02855671 201.61516398 307.99747023 194.32128906 304.97607422 C191.95003568 303.9789906 189.59565712 302.94845167 187.2421875 301.91015625 C186.47608154 301.57838379 185.70997559 301.24661133 184.9206543 300.90478516 C183.47689745 300.27942552 182.03782527 299.64308639 180.60473633 298.99365234 C175.06361477 296.62487615 171.73071348 296.97120178 166.2109375 299.05078125 C164.80714844 299.67533203 164.80714844 299.67533203 163.375 300.3125 C157.3078194 302.88846841 151.34334234 305.19147261 145 307 C144.28650391 307.21720703 143.57300781 307.43441406 142.83789062 307.65820312 C107.28009058 318.11295351 64.46721515 314.50026214 31 299 C30.3208252 298.68804687 29.64165039 298.37609375 28.94189453 298.0546875 C14.51579583 291.3350278 0.97029176 283.55662233 -11 273 C-12.26070312 271.90365234 -12.26070312 271.90365234 -13.546875 270.78515625 C-16.06651469 268.55895286 -18.53985699 266.29169373 -21 264 C-21.78890625 263.27683594 -22.5778125 262.55367188 -23.390625 261.80859375 C-40.21834657 245.76797528 -52.71516899 225.32796545 -61.27539062 203.81738281 C-61.94913389 202.1275766 -62.6530709 200.44989494 -63.359375 198.7734375 C-64.75689501 195.22787748 -65.93347239 191.65533491 -67 188 C-67.22993652 187.22865723 -67.45987305 186.45731445 -67.69677734 185.66259766 C-77.87530344 149.6828517 -74.67524105 106.84501889 -59 73 C-58.68804687 72.3208252 -58.37609375 71.64165039 -58.0546875 70.94189453 C-51.3350278 56.51579583 -43.55662233 42.97029176 -33 31 C-32.26910156 30.15953125 -31.53820312 29.3190625 -30.78515625 28.453125 C-21.34683119 17.77073249 -11.33511724 8.59116955 0 0 Z " fill="#F9C40D" transform="translate(157,115)"/>
<path d="M0 0 C32.00527186 13.97681695 56.85480614 37.72138442 69.80004883 70.52026367 C71.68138049 75.7889455 73.28664788 81.13580825 74.80004883 86.52026367 C75.10168945 87.55473633 75.10168945 87.55473633 75.40942383 88.61010742 C76.44442337 93.67125518 77.12171277 99.89173053 74.75317383 104.60229492 C73.00249192 106.71856041 71.2626798 108.28894819 68.80004883 109.52026367 C64.24456638 109.89988721 61.95556619 110.0600021 57.77270508 108.10620117 C53.68425737 104.54962773 52.6499653 100.88685297 50.98754883 95.83276367 C45.69647706 80.96101306 38.97409156 67.69548175 28.80004883 55.52026367 C27.96860352 54.52510742 27.1371582 53.52995117 26.28051758 52.50463867 C12.09151933 36.06266648 -6.82073348 23.89838911 -27.57495117 17.52026367 C-32.24329711 15.99442298 -35.40116927 14.76669138 -38.19995117 10.52026367 C-39.14404892 7.77328046 -39.48946243 5.41537626 -39.19995117 2.52026367 C-31.4735131 -13.22978316 -12.60359186 -5.2928822 0 0 Z " fill="#FFFFFF" transform="translate(322.199951171875,125.479736328125)"/>
</svg>
